<svg width="118.799" height="72.657" viewBox="0 0 118.799 72.657" xmlns="http://www.w3.org/2000/svg">
    <g id="svgGroup" stroke-linecap="round" fill-rule="evenodd" font-size="1pt" stroke="#6976f6" stroke-width="2mm"
        fill="#6976f6" style="stroke:#6976f6;stroke-width:0.01mm;fill:#6976f6">
        <path
            d="M 49.219 3.174 L 49.903 10.938 A 50.438 50.438 0 0 0 47.353 10.026 Q 45.057 9.268 42.188 8.521 A 33.429 33.429 0 0 0 38.136 7.746 Q 34.94 7.324 31.055 7.324 A 25.774 25.774 0 0 0 24.553 8.097 A 17.529 17.529 0 0 0 15.161 14.014 A 20.487 20.487 0 0 0 11.761 20.238 Q 9.799 25.774 9.677 33.827 A 71.286 71.286 0 0 0 9.668 34.912 Q 9.668 48.667 13.327 56.153 A 21.249 21.249 0 0 0 14.185 57.74 Q 18.702 65.283 29.151 65.283 A 32.036 32.036 0 0 0 33.263 65.035 Q 35.403 64.758 37.186 64.17 A 15.23 15.23 0 0 0 39.527 63.184 A 43.443 43.443 0 0 0 41.826 61.886 Q 42.968 61.191 43.89 60.513 A 17.184 17.184 0 0 0 45.557 59.131 L 45.557 41.748 L 32.325 41.748 L 31.397 35.205 L 53.321 35.205 L 53.321 71.289 L 48.243 71.289 L 46.387 65.381 A 13.065 13.065 0 0 1 45.248 66.646 Q 44.631 67.251 43.867 67.874 A 27.117 27.117 0 0 1 42.896 68.628 A 16.249 16.249 0 0 1 40.573 70.05 Q 39.401 70.645 38.011 71.155 A 29.797 29.797 0 0 1 37.061 71.485 A 21.1 21.1 0 0 1 33.891 72.243 Q 31.374 72.657 28.272 72.657 A 29.799 29.799 0 0 1 18.933 71.226 A 26.999 26.999 0 0 1 13.916 68.994 A 22.961 22.961 0 0 1 6.675 62.352 A 31.545 31.545 0 0 1 3.76 57.349 Q 0 49.366 0 36.28 Q 0 28.207 1.488 22.193 A 35.094 35.094 0 0 1 2.539 18.701 Q 4.941 12.051 8.958 8.022 A 21.398 21.398 0 0 1 9.424 7.569 A 25.249 25.249 0 0 1 19.287 1.734 A 38.22 38.22 0 0 1 30.811 0 Q 36.086 0 40.195 0.718 A 36.029 36.029 0 0 1 41.529 0.977 A 68.235 68.235 0 0 1 44.75 1.744 Q 47.266 2.411 49.219 3.174 Z"
            id="0" vector-effect="non-scaling-stroke" />
        <path
            d="M 72.071 71.485 L 62.549 71.485 L 85.791 1.319 L 95.606 1.319 L 118.799 71.485 L 109.229 71.485 L 104.444 55.518 L 76.905 55.518 L 72.071 71.485 Z M 90.723 10.791 L 78.516 50.049 L 102.784 50.049 L 90.723 10.791 Z"
            id="1" vector-effect="non-scaling-stroke" />
    </g>
</svg>