<svg id="visual" viewBox="0 0 1920 1080" width="1920" height="1080" xmlns="http://www.w3.org/2000/svg" xmlns:xlink="http://www.w3.org/1999/xlink" version="1.1"><rect x="0" y="0" width="1920" height="1080" fill="#ffffff"></rect><path d="M1527 1080L1522.7 1057.5C1518.3 1035 1509.7 990 1487.2 945C1464.7 900 1428.3 855 1406.5 810C1384.7 765 1377.3 720 1371.2 675C1365 630 1360 585 1381.2 540C1402.3 495 1449.7 450 1478.8 405C1508 360 1519 315 1501.3 270C1483.7 225 1437.3 180 1412 135C1386.7 90 1382.3 45 1380.2 22.5L1378 0L1920 0L1920 22.5C1920 45 1920 90 1920 135C1920 180 1920 225 1920 270C1920 315 1920 360 1920 405C1920 450 1920 495 1920 540C1920 585 1920 630 1920 675C1920 720 1920 765 1920 810C1920 855 1920 900 1920 945C1920 990 1920 1035 1920 1057.5L1920 1080Z" fill="#6976f6"></path><path d="M1460 1080L1450.2 1057.5C1440.3 1035 1420.7 990 1420.2 945C1419.7 900 1438.3 855 1453.2 810C1468 765 1479 720 1490.3 675C1501.7 630 1513.3 585 1532.8 540C1552.3 495 1579.7 450 1593 405C1606.3 360 1605.7 315 1588.5 270C1571.3 225 1537.7 180 1506.3 135C1475 90 1446 45 1431.5 22.5L1417 0L1920 0L1920 22.5C1920 45 1920 90 1920 135C1920 180 1920 225 1920 270C1920 315 1920 360 1920 405C1920 450 1920 495 1920 540C1920 585 1920 630 1920 675C1920 720 1920 765 1920 810C1920 855 1920 900 1920 945C1920 990 1920 1035 1920 1057.5L1920 1080Z" fill="#2497ff"></path><path d="M1598 1080L1614 1057.5C1630 1035 1662 990 1667.7 945C1673.3 900 1652.7 855 1622.2 810C1591.7 765 1551.3 720 1540.7 675C1530 630 1549 585 1575.8 540C1602.7 495 1637.3 450 1648.8 405C1660.3 360 1648.7 315 1635.5 270C1622.3 225 1607.7 180 1591.3 135C1575 90 1557 45 1548 22.5L1539 0L1920 0L1920 22.5C1920 45 1920 90 1920 135C1920 180 1920 225 1920 270C1920 315 1920 360 1920 405C1920 450 1920 495 1920 540C1920 585 1920 630 1920 675C1920 720 1920 765 1920 810C1920 855 1920 900 1920 945C1920 990 1920 1035 1920 1057.5L1920 1080Z" fill="#00b0fa"></path><path d="M1746 1080L1745.2 1057.5C1744.3 1035 1742.7 990 1725 945C1707.3 900 1673.7 855 1663.2 810C1652.7 765 1665.3 720 1683.8 675C1702.3 630 1726.7 585 1723.8 540C1721 495 1691 450 1671.7 405C1652.3 360 1643.7 315 1662 270C1680.3 225 1725.7 180 1730.8 135C1736 90 1701 45 1683.5 22.5L1666 0L1920 0L1920 22.5C1920 45 1920 90 1920 135C1920 180 1920 225 1920 270C1920 315 1920 360 1920 405C1920 450 1920 495 1920 540C1920 585 1920 630 1920 675C1920 720 1920 765 1920 810C1920 855 1920 900 1920 945C1920 990 1920 1035 1920 1057.5L1920 1080Z" fill="#00c3e8"></path><path d="M1856 1080L1855.8 1057.5C1855.7 1035 1855.3 990 1848.8 945C1842.3 900 1829.7 855 1814.2 810C1798.7 765 1780.3 720 1778.5 675C1776.7 630 1791.3 585 1798 540C1804.7 495 1803.3 450 1798.2 405C1793 360 1784 315 1779.8 270C1775.7 225 1776.3 180 1777.7 135C1779 90 1781 45 1782 22.5L1783 0L1920 0L1920 22.5C1920 45 1920 90 1920 135C1920 180 1920 225 1920 270C1920 315 1920 360 1920 405C1920 450 1920 495 1920 540C1920 585 1920 630 1920 675C1920 720 1920 765 1920 810C1920 855 1920 900 1920 945C1920 990 1920 1035 1920 1057.5L1920 1080Z" fill="#2fd0c7"></path></svg>