<svg id="visual" viewBox="0 0 1920 1080" width="1920" height="1080" xmlns="http://www.w3.org/2000/svg" xmlns:xlink="http://www.w3.org/1999/xlink" version="1.1"><path d="M0 221L40 223.3C80 225.7 160 230.3 240 243C320 255.7 400 276.3 480 288.7C560 301 640 305 720 308.5C800 312 880 315 960 303C1040 291 1120 264 1200 247.5C1280 231 1360 225 1440 235C1520 245 1600 271 1680 285.2C1760 299.3 1840 301.7 1880 302.8L1920 304L1920 0L1880 0C1840 0 1760 0 1680 0C1600 0 1520 0 1440 0C1360 0 1280 0 1200 0C1120 0 1040 0 960 0C880 0 800 0 720 0C640 0 560 0 480 0C400 0 320 0 240 0C160 0 80 0 40 0L0 0Z" fill="#6976f6"></path><path d="M0 259L40 264.5C80 270 160 281 240 281.2C320 281.3 400 270.7 480 262.3C560 254 640 248 720 241.7C800 235.3 880 228.7 960 217.7C1040 206.7 1120 191.3 1200 183.8C1280 176.3 1360 176.7 1440 186.3C1520 196 1600 215 1680 232.5C1760 250 1840 266 1880 274L1920 282L1920 0L1880 0C1840 0 1760 0 1680 0C1600 0 1520 0 1440 0C1360 0 1280 0 1200 0C1120 0 1040 0 960 0C880 0 800 0 720 0C640 0 560 0 480 0C400 0 320 0 240 0C160 0 80 0 40 0L0 0Z" fill="#2497ff"></path><path d="M0 181L40 172C80 163 160 145 240 141.8C320 138.7 400 150.3 480 167.5C560 184.7 640 207.3 720 213.3C800 219.3 880 208.7 960 193.5C1040 178.3 1120 158.7 1200 152.2C1280 145.7 1360 152.3 1440 159.8C1520 167.3 1600 175.7 1680 184.8C1760 194 1840 204 1880 209L1920 214L1920 0L1880 0C1840 0 1760 0 1680 0C1600 0 1520 0 1440 0C1360 0 1280 0 1200 0C1120 0 1040 0 960 0C880 0 800 0 720 0C640 0 560 0 480 0C400 0 320 0 240 0C160 0 80 0 40 0L0 0Z" fill="#00b0fa"></path><path d="M0 97L40 97.5C80 98 160 99 240 109C320 119 400 138 480 144C560 150 640 143 720 132.5C800 122 880 108 960 109.5C1040 111 1120 128 1200 139C1280 150 1360 155 1440 144.8C1520 134.7 1600 109.3 1680 106.3C1760 103.3 1840 122.7 1880 132.3L1920 142L1920 0L1880 0C1840 0 1760 0 1680 0C1600 0 1520 0 1440 0C1360 0 1280 0 1200 0C1120 0 1040 0 960 0C880 0 800 0 720 0C640 0 560 0 480 0C400 0 320 0 240 0C160 0 80 0 40 0L0 0Z" fill="#00c3e8"></path><path d="M0 36L40 36C80 36 160 36 240 39.7C320 43.3 400 50.7 480 59.3C560 68 640 78 720 79C800 80 880 72 960 68.3C1040 64.7 1120 65.3 1200 68.2C1280 71 1360 76 1440 78.3C1520 80.7 1600 80.3 1680 79.7C1760 79 1840 78 1880 77.5L1920 77L1920 0L1880 0C1840 0 1760 0 1680 0C1600 0 1520 0 1440 0C1360 0 1280 0 1200 0C1120 0 1040 0 960 0C880 0 800 0 720 0C640 0 560 0 480 0C400 0 320 0 240 0C160 0 80 0 40 0L0 0Z" fill="#2fd0c7"></path></svg>