<svg id="visual" viewBox="0 0 1920 1080" width="1920" height="1080" xmlns="http://www.w3.org/2000/svg" xmlns:xlink="http://www.w3.org/1999/xlink" version="1.1"><path d="M0 799L40 803.7C80 808.3 160 817.7 240 819.7C320 821.7 400 816.3 480 810.3C560 804.3 640 797.7 720 801.2C800 804.7 880 818.3 960 816.8C1040 815.3 1120 798.7 1200 803.8C1280 809 1360 836 1440 834.8C1520 833.7 1600 804.3 1680 793.2C1760 782 1840 789 1880 792.5L1920 796L1920 1081L1880 1081C1840 1081 1760 1081 1680 1081C1600 1081 1520 1081 1440 1081C1360 1081 1280 1081 1200 1081C1120 1081 1040 1081 960 1081C880 1081 800 1081 720 1081C640 1081 560 1081 480 1081C400 1081 320 1081 240 1081C160 1081 80 1081 40 1081L0 1081Z" fill="#6976f6"></path><path d="M0 873L40 880.2C80 887.3 160 901.7 240 900C320 898.3 400 880.7 480 863.8C560 847 640 831 720 832C800 833 880 851 960 863.7C1040 876.3 1120 883.7 1200 889.3C1280 895 1360 899 1440 890.5C1520 882 1600 861 1680 858.3C1760 855.7 1840 871.3 1880 879.2L1920 887L1920 1081L1880 1081C1840 1081 1760 1081 1680 1081C1600 1081 1520 1081 1440 1081C1360 1081 1280 1081 1200 1081C1120 1081 1040 1081 960 1081C880 1081 800 1081 720 1081C640 1081 560 1081 480 1081C400 1081 320 1081 240 1081C160 1081 80 1081 40 1081L0 1081Z" fill="#3491ff"></path><path d="M0 956L40 951.3C80 946.7 160 937.3 240 935C320 932.7 400 937.3 480 930.7C560 924 640 906 720 901.2C800 896.3 880 904.7 960 916C1040 927.3 1120 941.7 1200 945C1280 948.3 1360 940.7 1440 931C1520 921.3 1600 909.7 1680 907.3C1760 905 1840 912 1880 915.5L1920 919L1920 1081L1880 1081C1840 1081 1760 1081 1680 1081C1600 1081 1520 1081 1440 1081C1360 1081 1280 1081 1200 1081C1120 1081 1040 1081 960 1081C880 1081 800 1081 720 1081C640 1081 560 1081 480 1081C400 1081 320 1081 240 1081C160 1081 80 1081 40 1081L0 1081Z" fill="#00a7fd"></path><path d="M0 944L40 952C80 960 160 976 240 972.3C320 968.7 400 945.3 480 938C560 930.7 640 939.3 720 939C800 938.7 880 929.3 960 925.7C1040 922 1120 924 1200 931.7C1280 939.3 1360 952.7 1440 953.3C1520 954 1600 942 1680 936.7C1760 931.3 1840 932.7 1880 933.3L1920 934L1920 1081L1880 1081C1840 1081 1760 1081 1680 1081C1600 1081 1520 1081 1440 1081C1360 1081 1280 1081 1200 1081C1120 1081 1040 1081 960 1081C880 1081 800 1081 720 1081C640 1081 560 1081 480 1081C400 1081 320 1081 240 1081C160 1081 80 1081 40 1081L0 1081Z" fill="#00b9f5"></path><path d="M0 1013L40 1010.3C80 1007.7 160 1002.3 240 999.5C320 996.7 400 996.3 480 996C560 995.7 640 995.3 720 1001C800 1006.7 880 1018.3 960 1023.5C1040 1028.7 1120 1027.3 1200 1027C1280 1026.7 1360 1027.3 1440 1025.8C1520 1024.3 1600 1020.7 1680 1008.2C1760 995.7 1840 974.3 1880 963.7L1920 953L1920 1081L1880 1081C1840 1081 1760 1081 1680 1081C1600 1081 1520 1081 1440 1081C1360 1081 1280 1081 1200 1081C1120 1081 1040 1081 960 1081C880 1081 800 1081 720 1081C640 1081 560 1081 480 1081C400 1081 320 1081 240 1081C160 1081 80 1081 40 1081L0 1081Z" fill="#00c6e2"></path><path d="M0 1014L40 1012.3C80 1010.7 160 1007.3 240 1011.2C320 1015 400 1026 480 1028.7C560 1031.3 640 1025.7 720 1023.7C800 1021.7 880 1023.3 960 1028.7C1040 1034 1120 1043 1200 1049.5C1280 1056 1360 1060 1440 1060.5C1520 1061 1600 1058 1680 1048.7C1760 1039.3 1840 1023.7 1880 1015.8L1920 1008L1920 1081L1880 1081C1840 1081 1760 1081 1680 1081C1600 1081 1520 1081 1440 1081C1360 1081 1280 1081 1200 1081C1120 1081 1040 1081 960 1081C880 1081 800 1081 720 1081C640 1081 560 1081 480 1081C400 1081 320 1081 240 1081C160 1081 80 1081 40 1081L0 1081Z" fill="#2fd0c7"></path></svg>