<svg id="visual" viewBox="0 0 1920 1080" width="1920" height="1080" xmlns="http://www.w3.org/2000/svg" xmlns:xlink="http://www.w3.org/1999/xlink" version="1.1"><path d="M0 187L32 186.2C64 185.3 128 183.7 192 184C256 184.3 320 186.7 384 200C448 213.3 512 237.7 576 242.2C640 246.7 704 231.3 768 214.8C832 198.3 896 180.7 960 182C1024 183.3 1088 203.7 1152 212.7C1216 221.7 1280 219.3 1344 222C1408 224.7 1472 232.3 1536 220.8C1600 209.3 1664 178.7 1728 174.7C1792 170.7 1856 193.3 1888 204.7L1920 216L1920 0L1888 0C1856 0 1792 0 1728 0C1664 0 1600 0 1536 0C1472 0 1408 0 1344 0C1280 0 1216 0 1152 0C1088 0 1024 0 960 0C896 0 832 0 768 0C704 0 640 0 576 0C512 0 448 0 384 0C320 0 256 0 192 0C128 0 64 0 32 0L0 0Z" fill="#6976f6"></path><path d="M0 188L32 187C64 186 128 184 192 182.2C256 180.3 320 178.7 384 168.5C448 158.3 512 139.7 576 127.8C640 116 704 111 768 119.5C832 128 896 150 960 155.5C1024 161 1088 150 1152 140.7C1216 131.3 1280 123.7 1344 122.5C1408 121.3 1472 126.7 1536 130.5C1600 134.3 1664 136.7 1728 143.2C1792 149.7 1856 160.3 1888 165.7L1920 171L1920 0L1888 0C1856 0 1792 0 1728 0C1664 0 1600 0 1536 0C1472 0 1408 0 1344 0C1280 0 1216 0 1152 0C1088 0 1024 0 960 0C896 0 832 0 768 0C704 0 640 0 576 0C512 0 448 0 384 0C320 0 256 0 192 0C128 0 64 0 32 0L0 0Z" fill="#00b0fa"></path><path d="M0 69L32 77.5C64 86 128 103 192 102.7C256 102.3 320 84.7 384 82.7C448 80.7 512 94.3 576 91.7C640 89 704 70 768 59.8C832 49.7 896 48.3 960 59.2C1024 70 1088 93 1152 101C1216 109 1280 102 1344 101.3C1408 100.7 1472 106.3 1536 103.2C1600 100 1664 88 1728 85C1792 82 1856 88 1888 91L1920 94L1920 0L1888 0C1856 0 1792 0 1728 0C1664 0 1600 0 1536 0C1472 0 1408 0 1344 0C1280 0 1216 0 1152 0C1088 0 1024 0 960 0C896 0 832 0 768 0C704 0 640 0 576 0C512 0 448 0 384 0C320 0 256 0 192 0C128 0 64 0 32 0L0 0Z" fill="#2fd0c7"></path></svg>